<svg width="1090" height="762" viewBox="0 0 1090 762" fill="none" xmlns="http://www.w3.org/2000/svg">
<path d="M756.712 381C756.712 591.224 587.395 761.641 378.536 761.641C169.677 761.641 0.358977 591.224 0.358977 381C0.358977 170.776 169.677 0.358977 378.536 0.358977C587.395 0.358977 756.712 170.776 756.712 381Z" stroke="#B5EFD7" stroke-width="0.717954"/>
<path d="M911.775 381C911.775 591.222 741.439 761.641 531.318 761.641C321.198 761.641 150.861 591.222 150.861 381C150.861 170.778 321.198 0.358977 531.318 0.358977C741.439 0.358977 911.775 170.778 911.775 381Z" stroke="#B5EFD7" stroke-width="0.717954"/>
<path d="M1089.64 381C1089.64 591.222 919.306 761.641 709.186 761.641C499.065 761.641 328.729 591.222 328.729 381C328.729 170.778 499.065 0.358977 709.186 0.358977C919.306 0.358977 1089.64 170.778 1089.64 381Z" stroke="#B5EFD7" stroke-width="0.717954"/>
</svg>
