<svg xmlns="http://www.w3.org/2000/svg" width="1153" height="806" fill="none"><g stroke="#B9F4D8" opacity=".2"><path d="M800.328 403c0 222.298-179.05 402.5-399.914 402.5C179.551 805.5.5 625.298.5 403S179.551.5 400.414.5C621.278.5 800.328 180.702 800.328 403Z"/><path d="M964.354 403c0 222.295-180.128 402.5-402.326 402.5-222.199 0-402.327-180.205-402.327-402.5S339.829.5 562.028.5C784.226.5 964.354 180.705 964.354 403Z"/><path d="M1152.5 403c0 222.295-180.127 402.5-402.325 402.5-222.198 0-402.326-180.205-402.326-402.5S527.977.5 750.175.5C972.373.5 1152.5 180.705 1152.5 403Z"/></g></svg>