<svg width="110" height="107" viewBox="0 0 110 107" fill="none" xmlns="http://www.w3.org/2000/svg">
<g clip-path="url(#clip0_3600_18427)">
<path d="M57.67 23.5173H43.362L36.9679 31.37V23.5173H33.1205C30.7382 23.5173 28.8076 21.6083 28.8076 19.2525V4.94159C28.8076 2.58578 30.7382 0.676758 33.1205 0.676758H57.67C60.0523 0.676758 61.9829 2.58578 61.9829 4.94159V19.2525C61.9829 21.6083 60.0523 23.5173 57.67 23.5173Z" stroke="#FF9274" stroke-miterlimit="10"/>
<path d="M49.7562 5.19922C47.8804 5.19922 46.2374 6.20112 45.3474 7.69042C44.4437 6.20112 42.8144 5.19922 40.9386 5.19922C38.1044 5.19922 35.8042 7.4738 35.8042 10.2764C35.8042 16.1659 45.3611 20.0381 45.3611 20.0381C45.3611 20.0381 54.918 15.8952 54.918 10.2764C54.918 7.4738 52.6177 5.19922 49.7835 5.19922H49.7562Z" stroke="#FF9274" stroke-miterlimit="10"/>
<path d="M28.8212 11.6572H4.99749C2.61512 11.6572 0.68457 13.5662 0.68457 15.9221V30.233C0.68457 32.5888 2.61512 34.4978 4.99749 34.4978H19.3054L25.6995 42.3505V34.4978H29.5469C31.9293 34.4978 33.8598 32.5888 33.8598 30.233V23.5175" stroke="#FF9274" stroke-miterlimit="10"/>
<path d="M14.3491 16.084V30.0293" stroke="#FF9274" stroke-miterlimit="10"/>
<path d="M20.1816 16.084V30.0293" stroke="#FF9274" stroke-miterlimit="10"/>
<path d="M10.2139 25.9404H24.3164" stroke="#FF9274" stroke-miterlimit="10"/>
<path d="M10.2139 20.1865H24.3164" stroke="#FF9274" stroke-miterlimit="10"/>
<path d="M87.518 47.3731C92.803 64.3918 93.871 77.782 91.0368 77.4842C86.0256 76.9697 63.8859 70.3219 47.8665 75.196L33.1067 79.6775C30.7381 80.3951 28.2325 79.0818 27.5068 76.7395L21.5372 57.5545C20.8115 55.2122 22.1396 52.7346 24.5083 52.017L39.2681 47.5355C55.2875 42.6614 69.8282 24.871 73.6893 21.6622C75.8663 19.8479 82.6026 31.5187 87.8877 48.5374L87.518 47.3731Z" stroke="#FF9274" stroke-miterlimit="10"/>
<path d="M91.4203 77.4304C89.1886 78.1074 81.5486 64.9473 77.0576 50.4875L77.4684 51.7872C72.9775 37.3274 71.8137 22.1906 74.0454 21.5137" stroke="#FF9274" stroke-miterlimit="10"/>
<path d="M74.5791 40.9555C74.5791 40.9555 80.0147 40.7524 82.6436 49.2279C85.2724 57.7034 80.8089 61.0205 80.8089 61.0205" stroke="#FF9274" stroke-miterlimit="10"/>
<path d="M53.6306 73.9504C51.5768 69.645 49.5368 64.5813 47.9074 59.3417L48.3182 60.6414C46.6889 55.4018 45.4977 50.0809 44.7446 45.3828" stroke="#FF9274" stroke-miterlimit="10"/>
<path d="M48.8934 78.0664L55.0547 101.042C55.6161 103.154 54.3975 105.321 52.289 105.971L51.7139 106.147C49.6465 106.769 47.4421 105.713 46.6753 103.71L36.9268 78.5132" stroke="#FF9274" stroke-miterlimit="10"/>
<path d="M89.9004 40.0081L101.963 31.3701" stroke="#FF9274" stroke-miterlimit="10"/>
<path d="M108.289 51.7056L93.4058 51.2588" stroke="#FF9274" stroke-miterlimit="10"/>
<path d="M92.2554 45.4506L109.795 40.1162" stroke="#FF9274" stroke-miterlimit="10"/>
</g>
<defs>
<clipPath id="clip0_3600_18427">
<rect width="110" height="107" fill="white"/>
</clipPath>
</defs>
</svg>
