<?xml version="1.0" encoding="UTF-8"?><svg id="uuid-c79333d6-cd30-44e6-9177-b52ee0da32a1" xmlns="http://www.w3.org/2000/svg" xmlns:xlink="http://www.w3.org/1999/xlink" viewBox="0 0 24 24"><defs><style>.uuid-b89bfa98-fbce-44e5-8795-98477be87c9c{fill:none;}.uuid-b89bfa98-fbce-44e5-8795-98477be87c9c,.uuid-7769244f-35b4-4a53-aa07-f7c5ec93c5a3{stroke-width:0px;}.uuid-7e30e529-3dc3-4baf-a4e9-37697aaba32d{clip-path:url(#uuid-ef6f070f-d8a2-4158-b315-dc3243fee4f1);}.uuid-7769244f-35b4-4a53-aa07-f7c5ec93c5a3{fill:#fea086;}</style><clipPath id="uuid-ef6f070f-d8a2-4158-b315-dc3243fee4f1"><rect class="uuid-b89bfa98-fbce-44e5-8795-98477be87c9c" width="24" height="24"/></clipPath></defs><g class="uuid-7e30e529-3dc3-4baf-a4e9-37697aaba32d"><path class="uuid-7769244f-35b4-4a53-aa07-f7c5ec93c5a3" d="m12,2.16c3.21,0,3.59.01,4.85.07,1.17.05,1.8.25,2.23.41.56.22.96.48,1.38.9.42.42.68.82.9,1.38.16.42.36,1.06.41,2.23.06,1.27.07,1.65.07,4.85s-.01,3.59-.07,4.85c-.05,1.17-.25,1.8-.41,2.23-.22.56-.48.96-.9,1.38-.42.42-.82.68-1.38.9-.42.16-1.06.36-2.23.41-1.27.06-1.65.07-4.85.07s-3.59-.01-4.85-.07c-1.17-.05-1.8-.25-2.23-.41-.56-.22-.96-.48-1.38-.9-.42-.42-.68-.82-.9-1.38-.16-.42-.36-1.06-.41-2.23-.06-1.27-.07-1.65-.07-4.85s.01-3.59.07-4.85c.05-1.17.25-1.8.41-2.23.22-.56.48-.96.9-1.38.42-.42.82-.68,1.38-.9.42-.16,1.06-.36,2.23-.41,1.26-.06,1.64-.07,4.85-.07Zm0-2.16c-3.26,0-3.67.01-4.95.07-1.28.06-2.15.26-2.91.56-.79.31-1.46.72-2.13,1.39-.67.67-1.08,1.34-1.39,2.12-.3.76-.5,1.64-.56,2.91-.06,1.28-.07,1.69-.07,4.95s.01,3.67.07,4.95c.06,1.28.26,2.15.56,2.91.31.79.72,1.46,1.39,2.13.67.67,1.34,1.08,2.12,1.38.76.3,1.64.5,2.91.56,1.28.06,1.69.07,4.95.07s3.67-.01,4.95-.07c1.27-.06,2.15-.26,2.91-.56.79-.3,1.46-.72,2.12-1.38s1.08-1.34,1.38-2.12c.3-.76.5-1.64.56-2.91.06-1.28.07-1.69.07-4.95s-.01-3.67-.07-4.95c-.06-1.28-.26-2.15-.56-2.91-.3-.8-.7-1.47-1.37-2.13-.67-.67-1.34-1.08-2.12-1.38-.76-.3-1.64-.5-2.91-.56-1.28-.06-1.69-.08-4.95-.08Z"/><path class="uuid-7769244f-35b4-4a53-aa07-f7c5ec93c5a3" d="m12,5.84c-3.4,0-6.16,2.76-6.16,6.16s2.76,6.16,6.16,6.16,6.16-2.76,6.16-6.16-2.76-6.16-6.16-6.16Zm0,10.16c-2.21,0-4-1.79-4-4s1.79-4,4-4,4,1.79,4,4-1.79,4-4,4Z"/><path class="uuid-7769244f-35b4-4a53-aa07-f7c5ec93c5a3" d="m19.85,5.59c0,.8-.65,1.44-1.44,1.44s-1.44-.65-1.44-1.44.65-1.44,1.44-1.44,1.44.65,1.44,1.44Z"/></g></svg>