<svg width="512" height="474" viewBox="0 0 512 474" fill="none" xmlns="http://www.w3.org/2000/svg">
<path opacity="0.5" d="M12 326.304L2.952 326.304L2.952 322.872C2.952 321.117 3.94 319.908 5.591 319.908C7.346 319.908 8.282 321.182 8.282 322.95L8.282 325.095L12 325.095L12 326.304ZM3.966 325.095L7.268 325.095L7.268 323.002C7.268 321.767 6.67 321.143 5.617 321.143C4.512 321.143 3.966 321.897 3.966 322.963L3.966 325.095ZM8.022 313.875L8.022 315.721L12 315.721L12 316.904L2.952 316.904L2.952 313.368C2.952 311.509 3.966 310.521 5.37 310.521C6.553 310.521 7.268 311.197 7.502 312.068C7.697 311.327 8.256 310.69 9.816 310.69L10.206 310.69C10.83 310.69 11.623 310.716 12 310.56L12 311.73C11.61 311.899 10.908 311.886 10.05 311.886L9.868 311.886C8.581 311.886 8.022 312.25 8.022 313.875ZM3.966 315.721L7.008 315.721L7.008 313.758C7.008 312.367 6.488 311.769 5.474 311.769C4.512 311.769 3.966 312.393 3.966 313.615L3.966 315.721ZM11.116 300.556C11.116 299.75 10.843 299.217 9.868 298.45L7.697 300.66C8.412 301.752 8.893 302.038 9.621 302.038C10.414 302.038 11.116 301.401 11.116 300.556ZM6.267 296.045L6.267 294.823L9.647 297.124L12 294.732L12 296.279L10.544 297.761C11.571 298.567 12.13 299.321 12.13 300.647C12.13 302.337 10.908 303.221 9.738 303.221C8.698 303.221 7.983 302.753 7.073 301.271C6.397 301.921 5.864 302.35 5.019 302.35C3.849 302.35 2.822 301.531 2.822 300.075C2.822 298.736 3.771 297.891 4.902 297.891C5.812 297.891 6.41 298.437 7.151 299.659L8.958 297.826L6.267 296.045ZM3.706 300.088C3.706 300.79 4.161 301.258 4.954 301.258C5.487 301.258 5.929 300.92 6.579 300.257C5.89 299.217 5.5 298.957 4.915 298.957C4.291 298.957 3.706 299.334 3.706 300.088ZM12 285.281L3.979 285.281L3.979 288.193L2.952 288.193L2.952 281.147L3.979 281.147L3.979 284.072L12 284.072L12 285.281ZM12 278.552L2.952 278.552L2.952 277.356L6.735 277.356L6.735 272.65L2.952 272.65L2.952 271.441L12 271.441L12 272.65L7.762 272.65L7.762 277.356L12 277.356L12 278.552ZM6.748 262.012L7.775 262.012L7.775 266.51L10.973 266.51L10.973 261.57L12 261.726L12 267.68L2.952 267.68L2.952 261.791L3.979 261.791L3.979 266.51L6.748 266.51L6.748 262.012ZM9.478 254.698L9.478 253.476C10.57 253.229 11.155 252.488 11.155 251.175C11.155 249.771 10.492 249.212 9.634 249.212C8.724 249.212 8.217 249.654 7.788 251.461C7.268 253.593 6.54 254.334 5.266 254.334C3.914 254.334 2.822 253.346 2.822 251.331C2.822 249.173 4.07 248.289 5.253 248.159L5.253 249.381C4.46 249.55 3.797 250.044 3.797 251.37C3.797 252.475 4.291 253.086 5.149 253.086C5.994 253.086 6.332 252.579 6.722 250.993C7.346 248.419 8.347 247.964 9.517 247.964C10.973 247.964 12.117 249.043 12.117 251.253C12.117 253.528 10.869 254.503 9.478 254.698ZM9.283 239.913L9.283 243.514L12 244.489L12 245.685L2.952 242.461L2.952 240.992L12 237.625L12 238.912L9.283 239.913ZM8.256 243.202L8.256 240.212C5.877 241.083 4.616 241.551 3.927 241.746L3.927 241.759C4.694 241.98 6.228 242.513 8.256 243.202ZM12 234.905L2.952 234.905L2.952 233.709L10.973 233.709L10.973 228.99L12 229.159L12 234.905ZM6.748 220.726L7.775 220.726L7.775 225.224L10.973 225.224L10.973 220.284L12 220.44L12 226.394L2.952 226.394L2.95199 220.505L3.97899 220.505L3.97899 225.224L6.748 225.224L6.748 220.726ZM9.478 217.912L9.478 216.69C10.57 216.443 11.155 215.702 11.155 214.389C11.155 212.985 10.492 212.426 9.63399 212.426C8.72399 212.426 8.21699 212.868 7.788 214.675C7.26799 216.807 6.53999 217.548 5.266 217.548C3.91399 217.548 2.82199 216.56 2.82199 214.545C2.82199 212.387 4.06999 211.503 5.25299 211.373L5.25299 212.595C4.45999 212.764 3.79699 213.258 3.79699 214.584C3.79699 215.689 4.29099 216.3 5.149 216.3C5.99399 216.3 6.33199 215.793 6.72199 214.207C7.34599 211.633 8.34699 211.178 9.51699 211.178C10.973 211.178 12.117 212.257 12.117 214.467C12.117 216.742 10.869 217.717 9.478 217.912ZM12 203.477L2.95199 203.477L2.95199 197.666L3.97899 197.666L3.97899 202.294L6.91699 202.294L6.91699 197.965L7.94399 197.965L7.94399 202.294L12 202.294L12 203.477ZM2.95199 194.93L2.95199 193.708L8.39899 193.708C10.531 193.708 11.116 192.538 11.116 191.381C11.116 190.029 10.492 189.067 8.39899 189.067L2.95199 189.067L2.95199 187.858L8.33399 187.858C11.272 187.858 12.117 189.483 12.117 191.407C12.117 193.292 11.207 194.93 8.42499 194.93L2.95199 194.93ZM12 183.077L12 184.208L2.95199 184.208L2.95199 182.622C5.07099 181.322 9.56899 178.501 10.544 177.994L10.544 177.981C9.38699 178.072 7.95699 178.059 6.48799 178.059L2.95199 178.059L2.95199 176.928L12 176.928L12 178.423C10.037 179.619 5.20099 182.557 4.18699 183.116L4.18699 183.142C5.21399 183.077 6.74799 183.077 8.38599 183.077L12 183.077ZM12 172.027L12 173.158L2.95199 173.158L2.95199 171.572C5.07099 170.272 9.56899 167.451 10.544 166.944L10.544 166.931C9.38699 167.022 7.95699 167.009 6.48799 167.009L2.95199 167.009L2.95199 165.878L12 165.878L12 167.373C10.037 168.569 5.20099 171.507 4.18699 172.066L4.18699 172.092C5.21399 172.027 6.74799 172.027 8.38599 172.027L12 172.027ZM6.74799 156.44L7.77499 156.44L7.77499 160.938L10.973 160.938L10.973 155.998L12 156.154L12 162.108L2.95199 162.108L2.95199 156.219L3.97899 156.219L3.97899 160.938L6.74799 160.938L6.74799 156.44ZM12 153.051L2.95199 153.051L2.95199 151.855L10.973 151.855L10.973 147.136L12 147.305L12 153.051Z" fill="#123C42"/>
<circle cx="275" cy="237" r="237" fill="#B5EFD7" fill-opacity="0.4"/>
<g clip-path="url(#clip0_5051_6163)">
<path d="M94.1805 164.515L93.2031 164.967L189.765 373.755L190.743 373.303L94.1805 164.515Z" fill="#008081"/>
<path d="M275.265 218.509C173.656 218.509 91 190.139 91 155.264C91 120.39 173.656 92.0049 275.265 92.0049C376.873 92.0049 459.529 120.375 459.529 155.264C459.529 190.153 376.873 218.524 275.265 218.524V218.509ZM275.265 93.0817C174.245 93.0817 92.0768 120.978 92.0768 155.264C92.0768 189.55 174.245 217.447 275.265 217.447C376.284 217.447 458.453 189.55 458.453 155.264C458.453 120.978 376.27 93.0817 275.265 93.0817Z" fill="#008081"/>
<path d="M275.265 302.6C198.093 302.6 135.322 279.686 135.322 251.502C135.322 223.318 198.108 200.403 275.265 200.403C352.423 200.403 415.208 223.318 415.208 251.502C415.208 279.686 352.423 302.6 275.265 302.6ZM275.265 201.494C198.696 201.494 136.399 223.935 136.399 251.516C136.399 279.097 198.696 301.538 275.265 301.538C351.834 301.538 414.131 279.097 414.131 251.516C414.131 223.935 351.834 201.494 275.265 201.494Z" fill="#008081"/>
<path d="M275.265 359.156C215.681 359.156 167.21 342.458 167.21 321.912C167.21 301.367 215.681 284.669 275.265 284.669C334.849 284.669 383.32 301.367 383.32 321.912C383.32 342.458 334.849 359.156 275.265 359.156ZM275.265 285.76C216.284 285.76 168.287 301.984 168.287 321.927C168.287 341.869 216.27 358.093 275.265 358.093C334.26 358.093 382.243 341.869 382.243 321.927C382.243 301.984 334.26 285.76 275.265 285.76Z" fill="#008081"/>
<path d="M275.264 398.884C227.741 398.884 189.062 386.206 189.062 370.614C189.062 355.021 227.726 342.344 275.264 342.344C322.802 342.344 361.467 355.021 361.467 370.614C361.467 386.206 322.802 398.884 275.264 398.884ZM275.264 343.406C228.329 343.406 190.138 355.61 190.138 370.599C190.138 385.589 228.329 397.793 275.264 397.793C322.199 397.793 360.39 385.589 360.39 370.599C360.39 355.61 322.199 343.406 275.264 343.406Z" fill="#008081"/>
<path d="M456.219 164.441L359.876 373.33L360.854 373.781L457.197 164.892L456.219 164.441Z" fill="#008081"/>
<path d="M235.006 153.319H231.192L230.16 156.196H228.893L232.307 146.615H233.863L237.428 156.196H236.066L235.006 153.319ZM231.523 152.232H234.689C233.767 149.712 233.271 148.377 233.064 147.647H233.051C232.817 148.46 232.252 150.084 231.523 152.232ZM243.491 156.196H242.129L239.554 146.615H240.903C241.647 149.754 242.679 153.718 242.858 154.806H242.872C243.12 153.581 244.441 149.065 245.061 146.615H246.3C246.878 148.762 248.186 153.622 248.392 154.765H248.406C248.723 153.113 250.058 148.583 250.581 146.615H251.834L249.039 156.196H247.677C247.098 153.994 245.873 149.423 245.639 148.281H245.625C245.336 149.712 244.097 153.994 243.491 156.196ZM260.037 153.319H256.224L255.191 156.196H253.925L257.339 146.615H258.894L262.46 156.196H261.097L260.037 153.319ZM256.554 152.232H259.72C258.798 149.712 258.302 148.377 258.096 147.647H258.082C257.848 148.46 257.284 150.084 256.554 152.232ZM269.443 151.984H267.488V156.196H266.235V146.615H269.979C271.948 146.615 272.994 147.689 272.994 149.175C272.994 150.428 272.278 151.185 271.356 151.433C272.141 151.64 272.815 152.232 272.815 153.884V154.297C272.815 154.957 272.788 155.797 272.953 156.196H271.714C271.535 155.783 271.549 155.04 271.549 154.131V153.939C271.549 152.576 271.163 151.984 269.443 151.984ZM267.488 147.689V150.91H269.566C271.039 150.91 271.673 150.359 271.673 149.286C271.673 148.267 271.012 147.689 269.718 147.689H267.488ZM283.408 150.635V151.722H278.645V155.109H283.876L283.711 156.196H277.406V146.615H283.642V147.702H278.645V150.635H283.408ZM289.09 156.196H287.892V146.615H289.571C290.948 148.859 293.935 153.622 294.472 154.654H294.486C294.39 153.429 294.403 151.915 294.403 150.359V146.615H295.601V156.196H294.018C292.751 154.118 289.64 148.996 289.048 147.923H289.021C289.09 149.01 289.09 150.635 289.09 152.369V156.196ZM306.49 150.635V151.722H301.727V155.109H306.958L306.793 156.196H300.488V146.615H306.724V147.702H301.727V150.635H306.49ZM310.366 153.526H311.66C311.922 154.682 312.706 155.301 314.097 155.301C315.583 155.301 316.175 154.599 316.175 153.691C316.175 152.727 315.707 152.19 313.794 151.736C311.536 151.185 310.751 150.414 310.751 149.065C310.751 147.634 311.798 146.477 313.931 146.477C316.217 146.477 317.153 147.799 317.29 149.051H315.996C315.817 148.212 315.294 147.51 313.89 147.51C312.72 147.51 312.073 148.033 312.073 148.941C312.073 149.836 312.61 150.194 314.289 150.607C317.015 151.268 317.497 152.328 317.497 153.567C317.497 155.109 316.354 156.32 314.014 156.32C311.605 156.32 310.572 154.999 310.366 153.526ZM321.067 153.526H322.361C322.622 154.682 323.407 155.301 324.797 155.301C326.284 155.301 326.876 154.599 326.876 153.691C326.876 152.727 326.408 152.19 324.495 151.736C322.237 151.185 321.452 150.414 321.452 149.065C321.452 147.634 322.498 146.477 324.632 146.477C326.917 146.477 327.854 147.799 327.991 149.051H326.697C326.518 148.212 325.995 147.51 324.591 147.51C323.421 147.51 322.774 148.033 322.774 148.941C322.774 149.836 323.311 150.194 324.99 150.607C327.716 151.268 328.198 152.328 328.198 153.567C328.198 155.109 327.055 156.32 324.715 156.32C322.306 156.32 321.273 154.999 321.067 153.526Z" fill="#008081"/>
<path d="M249.599 243.282H250.865V252.863H249.599V243.282ZM256.953 252.863H255.756V243.282H257.435C258.812 245.526 261.799 250.289 262.336 251.321H262.35C262.253 250.096 262.267 248.582 262.267 247.026V243.282H263.465V252.863H261.882C260.615 250.785 257.504 245.663 256.912 244.59H256.884C256.953 245.677 256.953 247.302 256.953 249.036V252.863ZM270.306 252.863V244.369H267.222V243.282H274.684V244.369H271.586V252.863H270.306ZM284.329 247.302V248.389H279.566V251.776H284.797L284.632 252.863H278.327V243.282H284.563V244.369H279.566V247.302H284.329ZM290.01 252.863H288.812V243.282H290.492C291.868 245.526 294.856 250.289 295.393 251.321H295.406C295.31 250.096 295.324 248.582 295.324 247.026V243.282H296.522V252.863H294.938C293.672 250.785 290.561 245.663 289.969 244.59H289.941C290.01 245.677 290.01 247.302 290.01 249.036V252.863ZM303.363 252.863V244.369H300.279V243.282H307.741V244.369H304.643V252.863H303.363Z" fill="#008081"/>
<path d="M218.093 325.313H219.373C218.946 326.938 217.735 328.149 215.56 328.149C212.696 328.149 211.251 325.974 211.251 323.262C211.251 320.66 212.696 318.306 215.601 318.306C217.859 318.306 219.084 319.6 219.373 321.197H218.106C217.762 320.151 217.074 319.366 215.56 319.366C213.44 319.366 212.586 321.294 212.586 323.221C212.586 325.107 213.398 327.089 215.615 327.089C217.088 327.089 217.735 326.236 218.093 325.313ZM227.542 318.306C230.24 318.306 231.92 320.33 231.92 323.18C231.92 325.823 230.447 328.163 227.432 328.163C224.61 328.163 223.04 325.988 223.04 323.235C223.04 320.495 224.637 318.306 227.542 318.306ZM227.487 319.394C225.326 319.394 224.376 321.156 224.376 323.193C224.376 325.258 225.422 327.076 227.487 327.076C229.703 327.076 230.598 325.245 230.598 323.207C230.598 321.142 229.593 319.394 227.487 319.394ZM237.385 328.025H236.187V318.444H237.867C239.243 320.688 242.231 325.451 242.767 326.484H242.781C242.685 325.258 242.699 323.744 242.699 322.188V318.444H243.896V328.025H242.313C241.047 325.947 237.935 320.826 237.343 319.752H237.316C237.385 320.839 237.385 322.464 237.385 324.198V328.025ZM248.001 325.355H249.295C249.556 326.511 250.341 327.131 251.731 327.131C253.218 327.131 253.81 326.428 253.81 325.52C253.81 324.556 253.342 324.019 251.429 323.565C249.171 323.014 248.386 322.243 248.386 320.894C248.386 319.463 249.432 318.306 251.566 318.306C253.851 318.306 254.788 319.628 254.925 320.881H253.631C253.452 320.041 252.929 319.339 251.525 319.339C250.355 319.339 249.708 319.862 249.708 320.77C249.708 321.665 250.245 322.023 251.924 322.436C254.65 323.097 255.132 324.157 255.132 325.396C255.132 326.938 253.989 328.149 251.649 328.149C249.24 328.149 248.207 326.828 248.001 325.355ZM259.283 318.444H260.549V328.025H259.283V318.444ZM265.439 328.025V318.444H268.853C271.552 318.444 273.369 320.289 273.369 323.138C273.369 325.974 271.593 328.025 268.812 328.025H265.439ZM266.706 319.531V326.952H268.716C270.973 326.952 272.033 325.327 272.033 323.166C272.033 321.28 271.056 319.531 268.716 319.531H266.706ZM283.634 322.464V323.551H278.871V326.938H284.103L283.937 328.025H277.632V318.444H283.869V319.531H278.871V322.464H283.634ZM291.326 323.813H289.371V328.025H288.118V318.444H291.862C293.831 318.444 294.877 319.518 294.877 321.004C294.877 322.257 294.161 323.014 293.239 323.262C294.024 323.469 294.698 324.061 294.698 325.713V326.126C294.698 326.786 294.671 327.626 294.836 328.025H293.597C293.418 327.612 293.432 326.869 293.432 325.96V325.768C293.432 324.405 293.046 323.813 291.326 323.813ZM289.371 319.518V322.739H291.449C292.922 322.739 293.556 322.188 293.556 321.115C293.556 320.096 292.895 319.518 291.601 319.518H289.371ZM304.531 325.148H300.718L299.686 328.025H298.419L301.833 318.444H303.389L306.954 328.025H305.591L304.531 325.148ZM301.048 324.061H304.215C303.292 321.541 302.797 320.206 302.59 319.476H302.577C302.343 320.289 301.778 321.913 301.048 324.061ZM311.541 328.025V319.531H308.457V318.444H315.919V319.531H312.821V328.025H311.541ZM319.561 318.444H320.828V328.025H319.561V318.444ZM329.602 318.306C332.301 318.306 333.98 320.33 333.98 323.18C333.98 325.823 332.507 328.163 329.492 328.163C326.67 328.163 325.101 325.988 325.101 323.235C325.101 320.495 326.698 318.306 329.602 318.306ZM329.547 319.394C327.386 319.394 326.436 321.156 326.436 323.193C326.436 325.258 327.482 327.076 329.547 327.076C331.764 327.076 332.658 325.245 332.658 323.207C332.658 321.142 331.654 319.394 329.547 319.394ZM339.445 328.025H338.247V318.444H339.927C341.304 320.688 344.291 325.451 344.828 326.484H344.842C344.745 325.258 344.759 323.744 344.759 322.188V318.444H345.957V328.025H344.373C343.107 325.947 339.996 320.826 339.404 319.752H339.376C339.445 320.839 339.445 322.464 339.445 324.198V328.025Z" fill="#008081"/>
<path d="M235.918 383V373.419H239.552C241.411 373.419 242.691 374.465 242.691 376.213C242.691 378.072 241.342 379.063 239.47 379.063H237.198V383H235.918ZM237.198 374.492V377.989H239.415C240.722 377.989 241.383 377.356 241.383 376.241C241.383 375.07 240.585 374.492 239.456 374.492H237.198ZM246.751 373.419H248.045V379.187C248.045 381.444 249.284 382.064 250.509 382.064C251.941 382.064 252.96 381.403 252.96 379.187V373.419H254.24V379.118C254.24 382.229 252.519 383.124 250.482 383.124C248.485 383.124 246.751 382.16 246.751 379.214V373.419ZM262.208 378.787H260.253V383H259V373.419H262.744C264.713 373.419 265.759 374.492 265.759 375.979C265.759 377.232 265.043 377.989 264.121 378.237C264.906 378.443 265.58 379.035 265.58 380.687V381.1C265.58 381.761 265.553 382.601 265.718 383H264.479C264.3 382.587 264.314 381.844 264.314 380.935V380.742C264.314 379.379 263.928 378.787 262.208 378.787ZM260.253 374.492V377.714H262.331C263.804 377.714 264.438 377.163 264.438 376.089C264.438 375.07 263.777 374.492 262.483 374.492H260.253ZM276.409 380.288H277.689C277.263 381.912 276.051 383.124 273.876 383.124C271.013 383.124 269.567 380.949 269.567 378.237C269.567 375.635 271.013 373.281 273.917 373.281C276.175 373.281 277.4 374.575 277.689 376.172H276.423C276.079 375.126 275.39 374.341 273.876 374.341C271.756 374.341 270.902 376.268 270.902 378.195C270.902 380.082 271.715 382.064 273.931 382.064C275.404 382.064 276.051 381.21 276.409 380.288ZM281.813 383V373.419H283.08V377.425H288.063V373.419H289.343V383H288.063V378.512H283.08V383H281.813ZM299.262 380.123H295.448L294.416 383H293.149L296.563 373.419H298.119L301.685 383H300.322L299.262 380.123ZM295.779 379.035H298.945C298.023 376.516 297.527 375.181 297.321 374.451H297.307C297.073 375.263 296.508 376.888 295.779 379.035ZM304.865 380.329H306.159C306.421 381.486 307.205 382.105 308.596 382.105C310.083 382.105 310.675 381.403 310.675 380.494C310.675 379.531 310.207 378.994 308.293 378.54C306.035 377.989 305.251 377.218 305.251 375.869C305.251 374.437 306.297 373.281 308.431 373.281C310.716 373.281 311.652 374.602 311.79 375.855H310.496C310.317 375.015 309.794 374.313 308.389 374.313C307.219 374.313 306.572 374.836 306.572 375.745C306.572 376.64 307.109 376.998 308.789 377.411C311.514 378.072 311.996 379.132 311.996 380.371C311.996 381.912 310.854 383.124 308.513 383.124C306.104 383.124 305.072 381.802 304.865 380.329ZM322.149 377.438V378.526H317.386V381.912H322.617L322.452 383H316.147V373.419H322.383V374.506H317.386V377.438H322.149Z" fill="#008081"/>
</g>
<defs>
<clipPath id="clip0_5051_6163">
<rect width="368.254" height="339" fill="white" transform="translate(91 86)"/>
</clipPath>
</defs>
</svg>
