<svg width="978" height="682" viewBox="0 0 978 682" fill="none" xmlns="http://www.w3.org/2000/svg">
<g opacity="0.5">
<path d="M678.921 341C678.921 529.132 527.019 681.641 339.64 681.641C152.262 681.641 0.358977 529.132 0.358977 341C0.358977 152.868 152.262 0.358977 339.64 0.358977C527.019 0.358977 678.921 152.868 678.921 341Z" stroke="#FDFBF6" stroke-width="0.717954"/>
<path d="M818.052 341C818.052 529.13 665.235 681.641 476.724 681.641C288.214 681.641 135.397 529.13 135.397 341C135.397 152.87 288.214 0.358977 476.724 0.358977C665.235 0.358977 818.052 152.87 818.052 341Z" stroke="#FDFBF6" stroke-width="0.717954"/>
<path d="M977.642 341C977.642 529.13 824.826 681.641 636.315 681.641C447.805 681.641 294.988 529.13 294.988 341C294.988 152.87 447.805 0.358977 636.315 0.358977C824.826 0.358977 977.642 152.87 977.642 341Z" stroke="#FDFBF6" stroke-width="0.717954"/>
</g>
</svg>
